<svg width="105" height="106" viewBox="0 0 105 106" fill="none" xmlns="http://www.w3.org/2000/svg">
<path fill-rule="evenodd" clip-rule="evenodd" d="M69.6466 39.7657C69.6466 44.3835 67.8121 48.8123 64.5468 52.0776C61.2815 55.3429 56.8528 57.1773 52.2349 57.1773C47.617 57.1773 43.1883 55.3429 39.923 52.0776C36.6577 48.8123 34.8232 44.3835 34.8232 39.7657C34.8232 35.1478 36.6577 30.7191 39.923 27.4538C43.1883 24.1884 47.617 22.354 52.2349 22.354C56.8528 22.354 61.2815 24.1884 64.5468 27.4538C67.8121 30.7191 69.6466 35.1478 69.6466 39.7657ZM60.9407 39.7657C60.9407 42.0746 60.0235 44.289 58.3909 45.9216C56.7582 47.5543 54.5438 48.4715 52.2349 48.4715C49.926 48.4715 47.7116 47.5543 46.079 45.9216C44.4463 44.289 43.5291 42.0746 43.5291 39.7657C43.5291 37.4567 44.4463 35.2424 46.079 33.6097C47.7116 31.9771 49.926 31.0598 52.2349 31.0598C54.5438 31.0598 56.7582 31.9771 58.3909 33.6097C60.0235 35.2424 60.9407 37.4567 60.9407 39.7657Z" fill="#11468F"/>
<path fill-rule="evenodd" clip-rule="evenodd" d="M52.2351 4.94238C25.7911 4.94238 4.35303 26.3805 4.35303 52.8245C4.35303 79.2684 25.7911 100.707 52.2351 100.707C78.6791 100.707 100.117 79.2684 100.117 52.8245C100.117 26.3805 78.6791 4.94238 52.2351 4.94238ZM13.0589 52.8245C13.0589 61.9221 16.1625 70.2971 21.3642 76.9483C25.0173 72.151 29.7301 68.2632 35.1344 65.5886C40.5387 62.914 46.4881 61.5251 52.518 61.5303C58.4699 61.5247 64.3446 62.8776 69.6944 65.4862C75.0442 68.0947 79.728 71.8899 83.3889 76.5827C87.1605 71.636 89.7 65.8624 90.7971 59.7395C91.8943 53.6165 91.5177 47.3204 89.6985 41.3719C87.8792 35.4234 84.6696 29.9936 80.3353 25.5318C76.001 21.0701 70.6665 17.7045 64.7732 15.7137C58.8799 13.7229 52.5973 13.164 46.4451 14.0834C40.293 15.0027 34.4482 17.3738 29.3944 21.0005C24.3405 24.6272 20.2229 29.4052 17.3823 34.9392C14.5417 40.4732 13.0596 46.604 13.0589 52.8245ZM52.2351 92.0007C43.2418 92.0142 34.5199 88.9204 27.5454 83.2427C30.3527 79.2238 34.0893 75.9425 38.4372 73.6779C42.7851 71.4134 47.6157 70.2326 52.518 70.2361C57.3592 70.2323 62.1314 71.3834 66.4384 73.5941C70.7453 75.8047 74.4627 79.011 77.2818 82.9466C70.2531 88.8087 61.3875 92.0136 52.2351 92.0007Z" fill="#11468F"/>
</svg>
